#define output_width 40
#define output_height 40
static unsigned char output_bits[] = {
   0x00, 0x00, 0x00, 0x00, 0x00, 0x00, 0x00, 0x00, 0x00, 0x00, 0x00, 0x00,
   0x00, 0x00, 0x00, 0x00, 0x00, 0x00, 0x00, 0x00, 0x00, 0x00, 0x00, 0x00,
   0x00, 0x00, 0x00, 0x00, 0x00, 0x00, 0x00, 0x00, 0x00, 0x00, 0x00, 0x00,
   0x00, 0x00, 0x00, 0x00, 0x00, 0x00, 0x00, 0x00, 0x00, 0x00, 0x00, 0x00,
   0x00, 0x00, 0x00, 0x00, 0x00, 0x00, 0x00, 0x00, 0x00, 0x00, 0x00, 0x00,
   0x00, 0x00, 0x00, 0x00, 0x00, 0x00, 0x00, 0x00, 0x00, 0x00, 0x00, 0x00,
   0x00, 0x00, 0x00, 0x00, 0xf0, 0xff, 0x01, 0x00, 0x00, 0xfc, 0xff, 0x07,
   0x00, 0x00, 0x7f, 0xc0, 0x1f, 0x00, 0x00, 0x0f, 0x00, 0x1e, 0x00, 0x00,
   0x07, 0x00, 0x38, 0x00, 0x00, 0x0f, 0x00, 0x3c, 0x00, 0x00, 0x7f, 0xc0,
   0x3f, 0x00, 0x00, 0xff, 0xff, 0x3f, 0x00, 0x00, 0xfb, 0xff, 0x3b, 0x00,
   0x00, 0x83, 0x7f, 0x38, 0x00, 0x00, 0x03, 0x00, 0x38, 0x00, 0x00, 0x03,
   0x00, 0x38, 0x00, 0x00, 0x03, 0x00, 0x38, 0x00, 0x00, 0x03, 0x00, 0x38,
   0x00, 0x00, 0x03, 0x00, 0x38, 0x00, 0x00, 0x03, 0x00, 0x38, 0x00, 0x00,
   0x03, 0x00, 0x38, 0x00, 0x00, 0x03, 0x00, 0x38, 0x00, 0x00, 0x03, 0x00,
   0x38, 0x00, 0x00, 0x03, 0x00, 0x38, 0x00, 0x00, 0x07, 0x00, 0x3c, 0x00,
   0x00, 0x3f, 0x80, 0x1f, 0x00, 0x00, 0xfe, 0xff, 0x1f, 0x00, 0x00, 0xfc,
   0xff, 0x07, 0x00, 0x00, 0xc0, 0x7f, 0x00, 0x00 };
